<?xml version="1.0" encoding="UTF-8"?>
<!DOCTYPE svg PUBLIC "-//W3C//DTD SVG 1.1//EN" "http://www.w3.org/Graphics/SVG/1.1/DTD/svg11.dtd">
<!-- Creator: CorelDRAW -->
<svg xmlns="http://www.w3.org/2000/svg" xml:space="preserve" width="226.246mm" height="226.246mm" version="1.1" style="shape-rendering:geometricPrecision; text-rendering:geometricPrecision; image-rendering:optimizeQuality; fill-rule:evenodd; clip-rule:evenodd"
viewBox="0 0 5749.41 5749.41"
 xmlns:xlink="http://www.w3.org/1999/xlink"
 xmlns:xodm="http://www.corel.com/coreldraw/odm/2003">
 <defs>
  <style type="text/css">
   <![CDATA[
    .fil0 {fill:#FEFEFE}
   ]]>
  </style>
 </defs>
 <g id="Camada_x0020_1">
  <metadata id="CorelCorpID_0Corel-Layer"/>
  <g id="_2925334424592">
   <path class="fil0" d="M5056.14 5295.2l-3012.17 0c-139.72,0 -239.06,-89.54 -239.06,-215.15l0 -3059.98c0,-115.95 99.21,-215.15 215.15,-215.15l3059.98 0c125.61,0 215.15,99.34 215.15,239.06l0 3012.17c0,149.31 -89.75,239.06 -239.06,239.06zm-3705.44 -3287.09l0 3083.89c0,346.53 310.89,657.42 657.42,657.42l3083.89 0c346.53,0 657.42,-310.89 657.42,-657.42l0 -3083.89c0,-346.53 -310.89,-657.42 -657.42,-657.42l-3083.89 0c-346.53,0 -657.42,310.89 -657.42,657.42z"/>
   <path class="fil0" d="M-0 800.85l0 2808.97c0,362.71 120.19,607.98 418.35,741.1 152.32,68.01 314.51,59.76 490.09,59.76l0 -466.17 -262.97 0c-80.5,0 -179.3,-98.79 -179.3,-179.3l0 -3119.74c0,-80.5 98.8,-179.3 179.3,-179.3l3119.74 0c80.5,0 179.3,98.8 179.3,179.3l0 251.01 466.17 0c0,-320.58 -6.77,-489.78 -212.1,-696.33 -144.89,-145.75 -304.58,-200.15 -588.75,-200.15l-2808.97 0c-528.66,0 -800.85,272.19 -800.85,800.85z"/>
  </g>
 </g>
</svg>
