<svg width="0" height="0" version="1.1" xmlns="http://www.w3.org/2000/svg" xmlns:xlink="http://www.w3.org/1999/xlink"><defs><symbol id="icon-footer-appstore" viewBox="0 0 32 32"><g fill="none" fill-rule="evenodd"><circle cx="16" cy="16" r="16" fill="#FFF"/><path d="M25.354 18.487c-1.338-.506-2.233-1.721-2.334-3.17-.099-1.412.593-2.666 1.851-3.355l1.046-.573-.747-.93c-1.255-1.563-3.051-2.497-4.804-2.497-1.215 0-2.058.318-2.735.574-.478.181-.855.323-1.269.323-.472 0-.938-.166-1.478-.358-.708-.252-1.51-.538-2.54-.538-1.99 0-3.997 1.188-5.237 3.098-1.851 2.849-1.343 7.734 1.208 11.616 1.011 1.538 2.428 3.305 4.435 3.323h.039c1.643 0 2.003-.876 3.598-.886 1.742.082 1.962.893 3.589.882 1.961-.018 3.375-1.771 4.499-3.484.664-1.007.921-1.534 1.438-2.678l.438-.97-.997-.377zM19.1 5.45c.65-.834 1.143-2.011.964-3.214-1.062.073-2.302.748-3.027 1.628-.658.799-1.201 1.983-.99 3.135 1.158.036 2.357-.656 3.053-1.549z" fill="#051d3b" fill-rule="nonzero"/></g></symbol><symbol id="icon-footer-caelum-logo-white" viewBox="0 0 427.984 103.041"><path fill="#FFF" d="M83.98 9.858H27.327A13.307 13.307 0 0 0 13.99 23.193v56.655c0 7.366 5.95 13.335 13.336 13.335H83.98a13.32 13.32 0 0 0 13.336-13.335V23.193A13.307 13.307 0 0 0 83.98 9.858zM28.123 23.6l2.092-5.396 2.092 5.397 5.805.307-4.508 3.693 1.47 5.59-4.857-3.152-4.867 3.153 1.47-5.59-4.48-3.693 5.784-.306zM88.98 77.267c0 4.918-2.336 7.58-7.223 7.58H30.234c-4.887 0-7.897-2.663-7.897-7.58.082-30.087 28.128-59.175 59.42-59.062 4.886 0 7.222 2.653 7.222 7.55v51.512zm196.062 1.796c-.388-1.224-.877-1.847-1.47-1.847-.132 0-.6.112-1.387.275-.786.163-1.734.214-2.877.214-3.56 0-5.326-2.418-5.326-7.305V12.03c0-1.438-1.326-2.172-4.183-2.172-2.827 0-4.153.735-4.153 2.173v59.155c0 5.08 1.306 8.642 3.908 10.65 2.612 2.01 5.57 3.01 8.886 3.01 4.806 0 7.194-.978 7.194-2.958 0-.652-.184-1.6-.592-2.825zm-134-2.387c-.796-1.275-1.53-1.928-2.173-1.928-.083 0-.225.05-.47.163-.214.082-.408.163-.622.245-3.418 1.704-7.172 2.58-11.192 2.58-5.54 0-9.5-1.58-11.835-4.672-2.366-3.102-4.1-8.152-4.1-15.13 0-12.63 5.377-18.926 14.967-18.926 3.612 0 7.193.786 10.774 2.357.113.06.246.112.358.163l.377.143a.79.79 0 0 0 .357.102c.592 0 1.275-.673 2.03-2.03.765-1.337 1.143-2.48 1.143-3.316 0-1.194-1.52-2.234-4.56-3.153-3.04-.928-6.49-1.408-10.316-1.408-6.276 0-11.57 1.765-15.917 5.264-2.336 1.897-4.163 4.64-5.52 8.232-1.357 3.55-2.03 7.795-2.03 12.733 0 9.397 2.01 16.212 6.05 20.425 4.02 4.234 10.13 6.326 18.334 6.326 4.152 0 7.764-.54 10.886-1.632 3.102-1.08 4.652-2.224 4.652-3.418 0-.785-.407-1.815-1.193-3.12zm46.116-40.708c-3.428-2.744-7.856-4.1-13.284-4.1-5.407 0-10.02.703-13.906 2.11-3.857 1.44-5.815 2.858-5.815 4.235 0 .653.44 1.632 1.255 2.97.837 1.325 1.57 1.978 2.224 1.978.133 0 .898-.357 2.285-1.092 4.04-2.03 8.417-3.06 13.192-3.06 7.253 0 10.865 2.743 10.865 8.304v4.642c-5.734.143-10.866.49-15.345 1.04-4.51.562-8.53 2.164-12.11 4.776-3.612 2.612-5.438 6.49-5.438 11.733 0 5.214 1.58 9.07 4.673 11.57 3.102 2.53 7.203 3.775 12.304 3.775 6.243 0 11.57-2.224 15.915-6.683v4.51c0 1.438 1.337 2.172 4.183 2.172 2.826 0 4.152-.735 4.152-2.173v-35.28c0-4.888-1.704-8.693-5.152-11.427zm-3.183 34.81c-2.438 2.205-4.836 3.888-7.172 5.05-2.357 1.195-5.132 1.797-8.366 1.797-5.622 0-8.417-2.714-8.417-8.152 0-3.418 1.357-5.805 4.08-7.193 1.378-.736 2.684-1.338 3.96-1.797 2.367-.918 7.662-1.388 15.916-1.388v11.683zm62.653-13.06c0-17.25-7.01-25.852-20.987-25.852-7.233 0-12.773 2.275-16.65 6.836-3.917 4.572-5.845 11.244-5.845 20.05 0 8.824 1.99 15.374 5.948 19.66 3.97 4.294 10.08 6.437 18.334 6.437 4.673 0 8.805-.735 12.417-2.173 3.612-1.47 5.397-2.826 5.397-4.152 0-.653-.397-1.663-1.244-2.99-.816-1.325-1.57-1.978-2.224-1.978-.143 0-.847.326-2.092.97-3.755 2.12-7.876 3.213-12.355 3.213-4.897 0-8.56-1.306-11.008-3.857-2.438-2.58-3.857-6.03-4.255-11.52h31.28c2.337-.765 3.154-2.203 3.286-4.642zm-34.566-2.876c.724-10.436 5.346-15.833 13.875-15.833 7.927 0 11.866 5.397 11.866 15.834h-25.74zM328.19 32.18c-2.817 0-4.204.736-4.204 2.205v36.26c-3.56 4.61-7.662 6.927-12.437 6.927-3.235 0-5.704-.847-7.47-2.53-1.744-1.683-3.427-4.05-3.427-7.09V34.384c0-1.47-1.326-2.204-4.183-2.204-2.826 0-4.152.736-4.152 2.205v34.383c0 5 2.255 8.937 5.132 11.763 2.877 2.848 7.04 4.266 12.498 4.266 5.183 0 9.774-2.255 14.04-6.713v4.59c0 1.44 1.438 2.174 4.182 2.174 2.765 0 4.152-.653 4.152-1.96V34.386c0-1.47-1.277-2.204-4.133-2.204zm85.69 13.96a18.748 18.748 0 0 0-.45-2.623 18.105 18.105 0 0 0-1.13-3.316 12.82 12.82 0 0 0-1.644-2.825 9.714 9.714 0 0 0-2.316-2.224c-2.99-1.927-6.326-2.886-10.1-2.886-5.866 0-11.14 2.724-15.753 8.203-2.234-5.48-6.958-8.203-14.15-8.203-5.44 0-10.214 2.204-14.366 6.662v-4.49c0-1.458-1.336-2.172-4.162-2.172-2.816 0-4.152.714-4.152 2.173v48.238c0 1.44 1.337 2.173 4.152 2.173 2.826 0 4.163-.735 4.163-2.173V46.332l1.49-1.683c.93-1.195 2.388-2.337 4.398-3.47 2.01-1.122 4.326-1.683 6.928-1.683 2.612 0 4.724.867 6.326 2.57 1.632 1.715 2.53 4.05 2.53 7.04v33.567c0 1.44 1.326 2.173 4.183 2.173 2.826 0 4.152-.735 4.152-2.173-.03-2.04-.03-4.02-.03-6.06 0-3.99.03-8.01.06-11.998 0-1.275 0-2.54.01-3.806 0-4.04.02-8.05-.02-12.05 0-.805-.01-1.62-.02-2.427 4.02-4.56 7.876-6.836 11.978-6.836 3.09 0 5.458.867 7.09 2.57.062.062.123.134.164.195 1.51 1.694 2.437 3.97 2.437 6.846v33.566c0 1.44 1.143 2.173 3.97 2.173 1.468 0 2.58-.194 3.315-.57.704-.378 1.06-.9 1.06-1.603V48.322c0-.755-.04-1.49-.112-2.183z"/></symbol><symbol id="icon-footer-caelum-logo" viewBox="0 0 101 21"><title>Caelum Logo</title><path d="M45.45 12.41v2.946c-.617.55-1.223.974-1.815 1.273-.592.3-1.294.447-2.11.447-1.418 0-2.124-.683-2.124-2.048 0-.865.342-1.468 1.026-1.818.35-.182.682-.336.999-.452.6-.233 1.94-.348 4.024-.348zm10.593-5.067c2.001 0 2.999 1.368 2.999 3.997h-6.503c.183-2.629 1.354-3.997 3.504-3.997zM84.798 5.65c-.716 0-1.052.179-1.052.545v12.154c0 .366.335.551 1.052.551.716 0 1.052-.185 1.052-.551V9.194l.375-.427c.233-.299.603-.589 1.111-.872.509-.283 1.09-.427 1.75-.427.658 0 1.189.217 1.597.65.408.433.638 1.023.638 1.772v8.459c0 .366.335.551 1.052.551.716 0 1.052-.185 1.052-.551-.025-3.042.033-6.128 0-9.155 1.017-1.148 1.99-1.726 3.025-1.726.783 0 1.38.217 1.788.65.409.433.658 1.023.658 1.772v8.459c0 .366.286.551 1.006.551s1.098-.185 1.098-.551V9.693c0-.798-.17-1.482-.42-2.048-.25-.565-.59-.99-1.007-1.273-.75-.482-1.594-.722-2.544-.722-1.484 0-2.812.687-3.979 2.068-.567-1.381-1.76-2.068-3.577-2.068-1.373 0-2.579.555-3.623 1.674V6.195c0-.366-.336-.545-1.052-.545zM71.33 5.63c-.716 0-1.052.186-1.052.552v8.662c0 1.265.57 2.252 1.296 2.967.725.715 1.78 1.076 3.156 1.076 1.307 0 2.47-.567 3.544-1.693v1.155c0 .365.354.551 1.052.551.698 0 1.052-.164 1.052-.492V6.182c0-.366-.322-.552-1.039-.552-.716 0-1.065.186-1.065.552v9.135c-.9 1.165-1.936 1.745-3.136 1.745-.818 0-1.446-.212-1.888-.636-.442-.425-.868-1.02-.868-1.785V6.18c0-.365-.335-.55-1.052-.55zm-15.366-.085c-1.818 0-3.219.578-4.202 1.726-.984 1.148-1.473 2.832-1.473 5.053 0 2.222.499 3.874 1.499 4.955 1 1.082 2.545 1.62 4.63 1.621 1.183 0 2.227-.185 3.136-.551.908-.366 1.36-.71 1.36-1.044 0-.166-.1-.421-.308-.754-.209-.333-.4-.499-.566-.499-.034 0-.21.083-.526.25-.95.532-1.99.8-3.123.8-1.234 0-2.159-.322-2.775-.971-.617-.649-.979-1.52-1.079-2.901h7.904c.584-.19.796-.551.829-1.168 0-4.343-1.772-6.517-5.307-6.517zm-13.066 0c-1.367 0-2.536.18-3.512.538-.975.358-1.466.714-1.466 1.064 0 .166.107.415.316.748.208.333.392.499.559.499.033 0 .228-.093.578-.276 1.017-.516 2.127-.775 3.328-.775 1.833 0 2.748.696 2.748 2.094v1.175a38.95 38.95 0 0 0-3.88.262 6.506 6.506 0 0 0-3.057 1.201c-.909.658-1.368 1.64-1.368 2.953 0 1.315.394 2.289 1.177 2.92.784.634 1.82.952 3.104.952 1.582 0 2.922-.562 4.024-1.686v1.135c0 .366.336.552 1.052.551.716-.001 1.052-.185 1.052-.551V9.463c0-1.231-.435-2.19-1.302-2.88-.867-.691-1.986-1.038-3.353-1.038zm-12.145 0c-1.584 0-2.924.444-4.024 1.326-.584.483-1.046 1.175-1.388 2.074-.342.898-.513 1.967-.513 3.215 0 2.363.509 4.08 1.526 5.145 1.016 1.065 2.562 1.595 4.629 1.595 1.05 0 1.965-.139 2.749-.413.783-.275 1.177-.56 1.177-.86 0-.2-.103-.463-.303-.788-.2-.324-.386-.485-.552-.485a.439.439 0 0 0-.112.04 1.92 1.92 0 0 1-.158.058 6.24 6.24 0 0 1-2.827.65c-1.401 0-2.4-.393-2.992-1.175-.592-.782-1.033-2.049-1.033-3.813 0-3.177 1.357-4.77 3.775-4.77.917 0 1.822.198 2.722.597.033.017.067.03.092.04l.099.039a.286.286 0 0 0 .085.026c.15 0 .321-.17.513-.512.192-.341.29-.624.29-.84 0-.3-.384-.56-1.151-.794-.767-.233-1.637-.355-2.604-.355zM17.11 2.1c1.237 0 1.828.675 1.828 1.91v12.98c0 1.235-.59 1.91-1.828 1.91H4.103c-1.237 0-1.999-.675-1.999-1.91C2.127 9.405 9.211 2.077 17.11 2.1zm-13.013 0l.526 1.365 1.466.079-1.137.925.374 1.411-1.23-.794-1.23.794.376-1.411-1.138-.925 1.467-.079.526-1.365zm60.5-2.1c-.715 0-1.051.185-1.051.551v14.904c0 1.281.328 2.176.986 2.684a3.58 3.58 0 0 0 2.242.761c1.217 0 1.822-.249 1.822-.748 0-.166-.051-.4-.151-.709-.1-.308-.225-.466-.375-.466-.034 0-.149.024-.349.066-.2.042-.44.059-.723.059-.9 0-1.348-.613-1.348-1.844V.55c0-.366-.336-.551-1.052-.551zM3.368 0A3.361 3.361 0 0 0 0 3.36v14.28A3.361 3.361 0 0 0 3.367 21h14.308a3.361 3.361 0 0 0 3.367-3.36V3.36A3.361 3.361 0 0 0 17.675 0H3.367z" fill-rule="evenodd"/></symbol><symbol id="icon-footer-cdc-logo" viewBox="0 0 69 31"><title>CDC Logo</title><defs><path id="a" d="M0 .019h68.912v30.168H0V.02z"/></defs><g fill="none" fill-rule="evenodd"><path d="M36.388 14.24c-.467.364-.904.585-1.309.665a6.68 6.68 0 0 1-1.295.12 4.225 4.225 0 0 1-1.56-.286 3.415 3.415 0 0 1-1.269-.872c-.36-.39-.647-.889-.858-1.496-.212-.608-.318-1.329-.318-2.162 0-.87.117-1.608.35-2.216.234-.607.542-1.104.926-1.49a3.565 3.565 0 0 1 1.289-.845 4.13 4.13 0 0 1 1.453-.266c.529 0 .96.03 1.295.087a6.97 6.97 0 0 1 1.164.326l-.569.878c-.422-.204-1.026-.306-1.81-.306a3.01 3.01 0 0 0-1.071.2c-.353.133-.668.35-.945.651-.278.302-.5.697-.668 1.185-.167.488-.25 1.086-.25 1.796 0 .638.079 1.197.237 1.676.16.48.377.878.655 1.198.277.319.603.558.977.718.375.16.783.24 1.223.24.397 0 .742-.04 1.038-.12a2.85 2.85 0 0 0 .746-.306l.569.625zm0 10.838c-.467.363-.904.585-1.309.665a6.68 6.68 0 0 1-1.295.12 4.225 4.225 0 0 1-1.56-.286 3.415 3.415 0 0 1-1.269-.872c-.36-.39-.647-.89-.858-1.497-.212-.607-.318-1.328-.318-2.162 0-.869.117-1.607.35-2.215.234-.608.542-1.105.925-1.49a3.568 3.568 0 0 1 1.29-.845 4.13 4.13 0 0 1 1.453-.266c.529 0 .96.029 1.295.086a6.94 6.94 0 0 1 1.164.326l-.57.878c-.422-.204-1.025-.306-1.81-.306-.361 0-.718.067-1.07.2-.353.133-.668.35-.945.652-.278.302-.5.696-.668 1.184-.167.488-.25 1.087-.25 1.796 0 .639.078 1.197.237 1.676.159.48.377.879.655 1.198.277.32.603.559.977.718.375.16.782.24 1.223.24.397 0 .742-.04 1.038-.12.295-.08.544-.182.746-.306l.569.626zm2.327-11.038c.246 0 .497-.033.753-.1.255-.066.454-.15.595-.252a1.602 1.602 0 0 0 .555-.699v-1.104a9.972 9.972 0 0 0-.754-.026c-.396 0-.797.015-1.202.046-.406.031-.694.162-.866.393-.172.23-.258.457-.258.678 0 .31.11.566.33.765.221.2.503.3.847.3zm-1.692-5.335a3.8 3.8 0 0 1 1.17-.452c.444-.097.91-.147 1.394-.147.458 0 .826.063 1.103.187.278.124.49.286.635.486.146.2.242.418.29.658.049.24.073.48.073.718 0 .533-.013 1.052-.04 1.557-.026.506-.039.985-.039 1.437 0 .328.06.645.179.952.118.305.31.57.574.791h-.938c-.273 0-.502-.31-.687-.931h-.066c-.08.124-.179.246-.298.365-.118.12-.262.227-.43.32a2.524 2.524 0 0 1-.673.233 3.948 3.948 0 0 1-.846.093 2.27 2.27 0 0 1-.787-.133 1.766 1.766 0 0 1-1.044-.971 1.932 1.932 0 0 1-.152-.785c0-.39.15-.794.45-1.211.3-.417.722-.659 1.268-.725.547-.067 1.124-.1 1.732-.1h.364c.118 0 .24.009.363.027a7.49 7.49 0 0 0 .04-.719c0-.488-.098-.83-.291-1.024-.194-.196-.547-.293-1.058-.293-.15 0-.31.011-.482.033a6.012 6.012 0 0 0-.529.093 4.36 4.36 0 0 0-.516.147 2.588 2.588 0 0 0-.429.193l-.33-.799zm8.987 4.351c0-.266-.079-.474-.237-.625a2.023 2.023 0 0 0-.588-.38c-.234-.101-.49-.2-.767-.292a3.588 3.588 0 0 1-.767-.36 1.981 1.981 0 0 1-.588-.565c-.158-.23-.238-.54-.238-.931 0-.639.18-1.107.542-1.404.361-.297.864-.446 1.507-.446.476 0 .874.043 1.196.127.322.084.601.184.84.299l-.252.878a4.114 4.114 0 0 0-.733-.259 3.601 3.601 0 0 0-.919-.113c-.388 0-.672.066-.852.2-.181.133-.271.363-.271.691 0 .231.079.41.238.539.158.129.354.244.588.346.233.102.489.202.766.3.278.097.533.225.767.385.233.16.43.361.588.605.159.244.238.566.238.965 0 .284-.046.55-.139.799-.092.248-.236.46-.43.638a2.092 2.092 0 0 1-.72.42 3.023 3.023 0 0 1-1.011.152c-.502 0-.93-.049-1.282-.146a4.022 4.022 0 0 1-.886-.346l.318-.905c.202.115.467.222.793.32.326.097.656.146.991.146.379 0 .692-.075.938-.226.247-.151.37-.422.37-.812m3.8.984c.246 0 .497-.033.753-.1.256-.066.454-.15.595-.252a1.6 1.6 0 0 0 .555-.699v-1.104a10.002 10.002 0 0 0-.753-.026c-.397 0-.798.015-1.203.046s-.694.162-.866.393c-.172.23-.258.457-.258.678 0 .31.11.566.33.765.221.2.503.3.847.3zm-1.692-5.335a3.8 3.8 0 0 1 1.17-.452 6.53 6.53 0 0 1 1.394-.147c.459 0 .826.063 1.104.187.278.124.489.286.634.486.146.2.242.418.291.658.048.24.073.48.073.718 0 .533-.013 1.052-.04 1.557-.026.506-.04.985-.04 1.437 0 .328.06.645.179.952.119.305.31.57.575.791h-.939c-.273 0-.502-.31-.687-.931h-.066c-.08.124-.179.246-.297.365a1.89 1.89 0 0 1-.43.32 2.518 2.518 0 0 1-.674.233 3.948 3.948 0 0 1-.846.093 2.27 2.27 0 0 1-.786-.133 1.766 1.766 0 0 1-1.044-.971 1.937 1.937 0 0 1-.152-.785c0-.39.15-.794.449-1.211.3-.417.723-.659 1.269-.725.546-.067 1.123-.1 1.731-.1h.364c.119 0 .24.009.363.027a7.39 7.39 0 0 0 .04-.719c0-.488-.097-.83-.291-1.024-.194-.196-.547-.293-1.057-.293-.15 0-.311.011-.483.033a6.012 6.012 0 0 0-.528.093c-.181.04-.353.089-.516.147a2.59 2.59 0 0 0-.43.193l-.33-.799zm11.684 5.389c.449 0 .806-.117 1.07-.353.264-.235.445-.592.542-1.07v-3.3a1.467 1.467 0 0 0-.542-.266 3.267 3.267 0 0 0-.806-.08c-.608 0-1.084.201-1.427.605-.344.404-.516 1.05-.516 1.936 0 .363.028.7.086 1.01.057.312.152.578.284.8.132.221.306.396.522.525.216.129.478.193.787.193zm2.67-1.517c0 .452.004.863.012 1.23.01.369.05.73.12 1.085h-.714l-.264-.944h-.053c-.177.31-.432.567-.767.77-.335.205-.727.307-1.176.307-.882 0-1.536-.28-1.963-.838-.427-.559-.64-1.432-.64-2.621 0-1.136.266-1.998.799-2.588.533-.59 1.266-.885 2.2-.885.326 0 .584.018.774.054.189.035.394.093.614.172V5.552h1.057v7.025zm1.748-1.037c0 .336.033.66.099.97.066.311.17.582.31.812.141.23.326.417.555.559.23.142.506.213.833.213 1.198.009 1.797-.843 1.797-2.555 0-.346-.033-.674-.099-.984a2.602 2.602 0 0 0-.31-.812 1.622 1.622 0 0 0-.555-.552c-.23-.138-.507-.207-.833-.207-1.198-.008-1.798.844-1.798 2.555m-1.097 0c0-1.126.25-1.989.747-2.588.498-.598 1.214-.898 2.148-.898.493 0 .923.083 1.289.247.365.164.667.399.905.705.238.306.414.674.528 1.104.115.43.173.907.173 1.43 0 1.127-.25 1.99-.748 2.588-.497.599-1.213.898-2.147.898-.494 0-.923-.082-1.29-.246a2.335 2.335 0 0 1-.904-.705 3.053 3.053 0 0 1-.529-1.104 5.55 5.55 0 0 1-.172-1.43" fill="#373435"/><path d="M41.159 16.483l-1.612 1.903h-.82l1.15-1.903h1.282zm-3.674 6.014c0 1.41.793 2.474 1.93 2.474 1.11 0 1.942-1.051 1.942-2.501 0-1.09-.542-2.461-1.916-2.461-1.362 0-1.956 1.277-1.956 2.488zm5.062-.067c0 2.382-1.652 3.42-3.185 3.42-1.718 0-3.066-1.278-3.066-3.314 0-2.141 1.414-3.405 3.171-3.405 1.837 0 3.08 1.343 3.08 3.3zm5.233-.545a2.12 2.12 0 0 0-.052-.493c-.172-.731-.807-1.343-1.679-1.343-1.203 0-1.916 1.064-1.916 2.474 0 1.304.647 2.382 1.89 2.382.78 0 1.493-.532 1.705-1.397.04-.16.053-.32.053-.506v-1.117zm1.15-5.628v7.783c0 .572.027 1.224.053 1.663h-1.03l-.054-1.118h-.04c-.343.719-1.11 1.264-2.153 1.264-1.547 0-2.75-1.317-2.75-3.273-.013-2.141 1.322-3.445 2.868-3.445.991 0 1.64.465 1.93.97h.027v-3.844h1.149zm8.183 5.548c0-.2-.013-.373-.066-.519-.212-.692-.767-1.25-1.626-1.25-1.11 0-1.903.944-1.903 2.434 0 1.264.648 2.315 1.89 2.315.727 0 1.374-.452 1.612-1.197.067-.2.093-.426.093-.626v-1.157zm1.163 2.954c0 1.49-.304 2.38-.912 2.953-.634.572-1.533.771-2.34.771-.766 0-1.611-.186-2.127-.532l.29-.905c.424.28 1.085.519 1.878.519 1.189 0 2.061-.625 2.061-2.261v-.705H57.1c-.344.598-1.044 1.077-2.035 1.077-1.586 0-2.723-1.357-2.723-3.14 0-2.181 1.414-3.405 2.894-3.405 1.11 0 1.705.572 1.996 1.104h.026l.04-.971h1.03c-.039.452-.052.985-.052 1.756v3.739zm1.921-2.262c0 1.41.793 2.474 1.93 2.474 1.11 0 1.943-1.051 1.943-2.501 0-1.09-.542-2.461-1.917-2.461-1.36 0-1.956 1.277-1.956 2.488m5.062-.067c0 2.381-1.652 3.42-3.185 3.42-1.718 0-3.066-1.278-3.066-3.314 0-2.141 1.414-3.405 3.172-3.405 1.837 0 3.079 1.344 3.079 3.3" fill="#373435"/><mask id="b" fill="#fff"><use xlink:href="#a"/></mask><path d="M50.085 19.264h1.163v6.439h-1.163v-6.44zm1.295-1.81c0 .4-.277.719-.74.719-.423 0-.7-.32-.7-.718 0-.4.29-.732.727-.732.422 0 .713.32.713.732z" fill="#373435" mask="url(#b)"/><path d="M23.263 10.902V5.267v.151H5.288v19.37h17.975v.202-5.635H10.656v-8.453h12.607z" fill="#FFCE2B" mask="url(#b)"/><path d="M10.786 24.787H5.288V5.418h17.975V.02H5.288L0 5.419v19.368l5.288 5.4h17.975v-5.4H10.786z" fill="#F58635" mask="url(#b)"/></g></symbol><symbol id="icon-footer-facebook" viewBox="0 0 32 32"><g fill="none" fill-rule="evenodd"><circle cx="16" cy="16" r="16" fill="#FFF"/><path d="M13.032 27L13 17H9v-4h4v-2.5C13 6.789 15.298 5 18.61 5c1.585 0 2.948.118 3.345.17v3.88H19.66c-1.8 0-2.15.856-2.15 2.112V13h5.241l-2 4H17.51v10h-4.478z" fill="#051d3b" fill-rule="nonzero"/></g></symbol><symbol id="icon-footer-googleplay" viewBox="0 0 32 32"><g fill="none" fill-rule="evenodd"><circle cx="16" cy="16" r="16" fill="#FFF"/><path d="M8.467 25.361l8.616-8.591 3.038 3.028-10.243 5.679c-.39.216-.867.213-1.254-.01l-.157-.106zm7.748-9.458L8 24.094V7.712l8.215 8.191zm5.133-3.385l4.013 2.225c.394.22.639.63.639 1.075 0 .445-.245.856-.639 1.075l-4.123 2.285-3.285-3.275 3.395-3.385zM8.376 6.354a1.281 1.281 0 011.502-.194L20.23 11.9l-3.147 3.137-8.707-8.683z" fill="#051d3b"/></g></symbol><symbol id="icon-footer-hipsters" viewBox="0 0 40 40"><title>Podcast Hipsters Ponto Tech</title><g fill-rule="evenodd"><path d="M27.273 24.545c-.546 0-.91.364-.91.91v1.818c0 .545.364.909.91.909.545 0 .909-.364.909-.91v-1.817c0-.546-.364-.91-.91-.91z"/><path d="M20 0C8.91 0 0 8.91 0 20s8.91 20 20 20 20-8.91 20-20S31.09 0 20 0zm11.818 27.273c0 2.545-2 4.545-4.545 4.545-2.546 0-4.546-2-4.546-4.545v-1.818A4.5 4.5 0 0 1 26 21.09c.182-.091.364-.273.364-.455v-2.454A6.324 6.324 0 0 0 20 11.818a6.324 6.324 0 0 0-6.364 6.364v2.454c0 .182.091.364.364.455a4.5 4.5 0 0 1 3.273 4.364v1.818c0 2.545-2 4.545-4.546 4.545-2.545 0-4.545-2-4.545-4.545v-1.818c0-1.364.636-2.637 1.636-3.455.091-.09.182-.182.182-.364v-3.454c0-5.546 4.455-10 10-10s10 4.454 10 10v3.454c0 .091.09.273.182.364 1 .818 1.636 2.09 1.636 3.455v1.818z"/><path d="M12.727 24.545c-.545 0-.909.364-.909.91v1.818c0 .545.364.909.91.909.545 0 .908-.364.908-.91v-1.817c0-.546-.363-.91-.909-.91z"/></g></symbol><symbol id="icon-footer-icon-contato" viewBox="0 0 65 66"><title>icon-empresa</title><path fill="#9898A6" d="M32.5 65.5C14.633 65.5 0 50.961 0 33S14.633.5 32.5.5 65 15.133 65 33c0 5.893-1.617 11.595-4.561 16.629-.379.664-1.234.855-1.996.477-.664-.379-.855-1.234-.477-1.996 2.757-4.561 4.183-9.786 4.183-15.11 0-16.344-13.306-29.649-29.649-29.649S2.851 16.656 2.851 33 16.156 62.649 32.5 62.649c5.702 0 10.74-1.617 13.684-4.468 2.566-2.472 3.706-5.038 3.515-7.506-.57-5.323-7.221-9.501-7.982-9.978-.094 0-.094-.094-.094-.094-.094 0-.285.094-.477.285-.192.192-1.047.949-1.519 1.519-.762.762-1.234 1.234-1.519 1.425-.57.477-1.425 1.047-2.374.855-.379 0-.664-.192-1.047-.379-.57-.285-3.136-2.187-7.604-7.221-5.132-5.795-5.225-9.216-5.225-10.17.094-1.047.855-1.711 1.425-2.187s1.332-.949 1.996-1.332a6.26 6.26 0 0 0 1.617-1.14c.192-.192.379-.285.379-.379v-.094c-.192-.379-2.851-6.464-3.706-8.174-.285 0-.664 0-.855.094-5.417 2.187-6.178 5.608-6.272 6.94-.094.949-.477 9.693 7.127 18.909 8.459 10.266 15.203 11.5 16.441 11.598.285 0 1.804.192 3.706-.477.762-.285 1.519.094 1.804.855s-.094 1.519-.855 1.804c-1.902.664-3.8.762-4.94.664-2.089-.192-9.501-1.804-18.339-12.637-8.268-10.072-7.889-19.863-7.791-20.905.094-1.519.949-6.464 7.982-9.216.949-.379 3.229-.57 4.085.57.379.477 4.183 9.123 4.183 9.216.192.477.192.949.192 1.425-.094.762-.57 1.425-1.425 2.187-.664.477-1.332.949-1.996 1.425-.57.379-1.14.664-1.711 1.14-.192.192-.285.285-.379.285 0 .57.379 3.229 4.468 7.791 4.276 4.846 6.464 6.365 6.749 6.557.094 0 .192-.094.379-.285l1.234-1.234c.949-.949 1.519-1.519 1.902-1.804.949-.664 1.711-.949 2.472-.855.477.094.949.192 1.332.477 1.425.855 8.646 5.608 9.408 12.165.379 3.515-1.047 6.842-4.37 9.885-3.435 3.319-9.136 5.315-15.6 5.315z"/></symbol><symbol id="icon-footer-icon-empresa" viewBox="0 0 65 66"><title>icon-empresa</title><path d="M64.972 43.225c-.08.79-.732 1.421-1.546 1.421h-.081c-.814-.079-1.465-.71-1.465-1.579.082-1.106.082-4.58-1.79-5.212-10.09-3-9.277-8.213-9.114-8.924v-.079c.163-.631.814-1.105 1.546-1.105.814 0 2.767-.08 4.394-.71-1.058-1.185-1.953-3.239-1.627-6.792.407-3.87-.163-6.87-1.465-8.134-.65-.632-1.383-.869-2.441-.711-.488.079-.977-.158-1.302-.553-.163-.158-1.546-1.58-4.557-.474h-.082c-1.302.474-4.231 1.58-4.068 8.53.081 3.869-.489 6.554-1.872 8.212.895.395 2.36.79 4.476.71.813 0 1.546.633 1.546 1.501 0 .79-.651 1.5-1.546 1.5h-.163c-6.022 0-8.056-2.605-8.219-2.921-.325-.474-.325-1.027-.081-1.5.244-.474.65-.711 1.22-.79.163-.08 1.71-.948 1.628-6.634C38.119 9.9 42.838 8.162 44.385 7.61h.08c3.826-1.421 6.267-.079 7.406.79 1.628 0 3.092.553 4.15 1.658 2.604 2.528 2.686 7.108 2.36 10.582-.407 4.186 1.383 5.055 1.628 5.213.57.079.895.473 1.057 1.026.163.553 0 1.106-.406 1.422-1.79 1.816-4.639 2.369-6.51 2.527.57 1.263 2.36 3 6.835 4.343 2.848.79 4.232 3.633 3.987 8.055zM23.797 61.941l-2.035-1.737 1.058-22.902c.326.08.733.08 1.14.08.325 0 .569 0 .895-.08l1.057 22.823-2.115 1.816zm3.824-31.114c-.813 0-1.546.631-1.546 1.5 0 .632-.244 1.185-.732 1.58l-.244.236a2.039 2.039 0 0 1-1.221.395c-1.22 0-2.197-.947-2.197-2.132 0-.79-.651-1.5-1.546-1.5s-1.546.631-1.546 1.5a4.87 4.87 0 0 0 1.139 3.159l-1.14 25.27c0 .474.163.869.489 1.185l3.58 3.159c.326.237.651.395 1.058.395.407 0 .733-.158 1.058-.395l3.662-3.16c.326-.315.488-.71.488-1.184l-1.139-24.954c.895-.869 1.383-2.132 1.383-3.396 0-1.027-.732-1.658-1.546-1.658zm-10.416-.395c.488.632.326 1.58-.407 2.053-.162.158-4.882 3.317-10.66 4.738-3.01.711-3.255 4.423-3.092 6.476v.158c0 1.184.081 3.238.407 3.948.325.79-.082 1.659-.895 1.896-.163.079-.407.079-.57.079-.57 0-1.22-.316-1.383-.948-.57-1.422-.57-4.343-.57-5.054-.325-5.133 1.628-8.608 5.37-9.477 5.29-1.263 9.603-4.264 9.684-4.264.651-.474 1.628-.316 2.116.395zm30.516 13.346c0 .71 0 3.553-.57 5.054-.244.553-.813.948-1.383.948-.163 0-.407 0-.57-.08a1.511 1.511 0 0 1-.895-1.895c.326-.71.407-2.764.326-3.948v-.158c.162-2.132 0-5.765-3.093-6.476-5.777-1.421-10.497-4.58-10.66-4.738-.65-.474-.813-1.421-.407-2.053.489-.632 1.465-.869 2.116-.395.082 0 4.394 3 9.684 4.264 3.824.948 5.777 4.423 5.452 9.477zM14.845 12.585v-.08c.407-8.844 7.487-9.081 8.87-9.002h.082c1.383-.079 8.463.158 8.87 9.003v.079c0 .078.813 7.818-2.93 11.845-1.465 1.58-3.418 2.37-6.022 2.448h-.162c-2.604 0-4.558-.79-6.022-2.448-3.5-4.027-2.686-11.767-2.686-11.845zM23.634 29.8h.325c3.418-.079 6.104-1.185 8.138-3.396 4.476-4.896 3.743-13.267 3.662-14.056C35.27 2.713 28.029.423 23.797.58 19.484.423 12.24 2.792 11.834 12.348c-.08.79-.813 9.16 3.662 14.056 1.953 2.211 4.72 3.317 8.138 3.396z" fill="#9898A6" fill-rule="evenodd"/></symbol><symbol id="icon-footer-instagram" viewBox="0 0 32 32"><g fill="none" fill-rule="evenodd"><circle cx="16" cy="16" r="16" fill="#FFF"/><g fill="#051d3b" fill-rule="nonzero" transform="translate(5 5)"><path d="M11 1.982c2.937 0 3.285.01 4.445.064 1.252.057 2.413.308 3.307 1.202.894.893 1.145 2.055 1.202 3.307.053 1.16.064 1.508.064 4.445 0 2.937-.01 3.285-.064 4.445-.057 1.252-.308 2.413-1.202 3.307-.893.894-2.055 1.145-3.307 1.202-1.16.053-1.508.064-4.445.064-2.937 0-3.285-.01-4.445-.064-1.252-.057-2.413-.308-3.307-1.202-.894-.893-1.145-2.055-1.202-3.307-.053-1.16-.064-1.508-.064-4.445 0-2.937.01-3.285.064-4.445.057-1.252.308-2.413 1.202-3.307.893-.894 2.055-1.145 3.307-1.202 1.16-.053 1.508-.064 4.445-.064M11 0C8.013 0 7.638.013 6.464.066c-1.787.082-3.357.52-4.618 1.78C.586 3.106.148 4.676.066 6.464.013 7.638 0 8.013 0 11c0 2.987.013 3.362.066 4.536.082 1.787.52 3.357 1.78 4.618 1.26 1.26 2.83 1.698 4.618 1.78C7.638 21.987 8.013 22 11 22c2.987 0 3.362-.013 4.536-.066 1.787-.082 3.357-.52 4.618-1.78 1.26-1.26 1.698-2.83 1.78-4.618.053-1.174.066-1.549.066-4.536 0-2.987-.013-3.362-.066-4.536-.082-1.787-.52-3.357-1.78-4.618-1.26-1.26-2.83-1.698-4.618-1.78C14.362.013 13.987 0 11 0z"/><path d="M11 5.351a5.65 5.65 0 100 11.299A5.65 5.65 0 0011 5.35zm0 9.316a3.667 3.667 0 110-7.335 3.667 3.667 0 010 7.335z"/><circle cx="16.872" cy="5.128" r="1.32"/></g></g></symbol><symbol id="icon-footer-novo-logo-caelum" viewBox="0 0 80 17.7"><style>.st0{fill:#667177}</style><switch><g><path class="st0" d="M74.4 7.1v2.3h4V5.6zM74.4 16.2l4-1.5v-2.3h-4zM26.1 14.6V9.2c0-1.5-.5-2.6-1.6-3.2-.7-.4-1.7-.6-3.1-.6-3.4 0-4.7 1.9-4.7 3.5V9h3v-.1c.1-.9.7-1.3 1.8-1.3.5 0 .9.1 1.1.3.3.2.4.5.4.8 0 .7-.6 1-2.6 1.3-2.5.3-4.2 1-4.2 3.3 0 1 .4 1.8 1 2.4.6.5 1.6.8 2.6.8 1.4 0 2.4-.5 3.2-1.5.1.5.2 1 .4 1.2h3.1v-.3c-.3-.1-.4-.5-.4-1.3zm-3-2.2c0 1.2-.9 2-2.2 2-.6 0-1.5-.2-1.5-1.2 0-.9.7-1.2 2-1.5.6-.1 1.3-.3 1.8-.6l-.1 1.3zM32.7 5.3c-3.2 0-5.4 2.4-5.4 5.6 0 1.6.5 3 1.5 4 1 1.1 2.4 1.6 4.1 1.6 2.5 0 4.4-1.3 5-3.3v-.1h-3.1c-.3.7-1 1-1.9 1-1.4 0-2.3-.8-2.5-2.4H38.1v-.1c0-2.2-.6-3.9-1.7-5-1-.8-2.3-1.3-3.7-1.3zm-2.3 4.5c.2-1.5 1-2.2 2.3-2.2 1.2 0 2 .9 2.1 2.2h-4.4zM67.3 5.3c-1.4 0-2.5.7-3.4 2-.6-1.3-1.5-2-2.9-2s-2.4.6-3.2 1.9V5.6h-3.1v10.6h3.2v-6c.1-1.3.8-2.2 1.9-2.2.5 0 .8.2 1.1.5.3.3.4.7.4 1.3v6.5h3.2v-6c0-.7.2-1.2.5-1.6.2-.5.7-.7 1.2-.7 1 0 1.5.6 1.5 1.8v6.5h3.2v-7c0-2.5-1.4-4-3.6-4zM39.2 2.4v13.8h3.2l.1-14.9v-.1h-.1zM11.8 11.4c-.3 1.4-1.4 2.2-2.9 2.2-2.2 0-3.7-1.9-3.7-4.8 0-3 1.4-4.8 3.7-4.8 1.3 0 2.3.7 2.7 1.7l3.2-1.2c-.4-.9-1-1.7-1.8-2.3C12 1.4 10.6 1 8.9 1c-1 0-2 .2-2.9.6-1 .5-1.7 1-2.4 1.7C3 4 2.5 4.8 2.1 5.7c-.4 1-.5 2-.5 3.1 0 2.2.7 4.1 2 5.5 1.3 1.4 3.2 2.2 5.3 2.2 2 0 3.5-.5 4.7-1.7.9-.9 1.6-2.1 1.8-3.4h-3.6zM50.4 5.6v6c0 .6-.2 1.2-.5 1.6-.4.4-.8.6-1.4.6-1 0-1.6-.6-1.6-1.8V5.6h-3.2v7c0 1.2.3 2.1 1 2.8.7.7 1.6 1.1 2.8 1.1 1.4 0 2.4-.5 3.2-1.8v1.5h3V5.6h-3.3z"/></g></switch></symbol><symbol id="icon-footer-twitter" viewBox="0 0 32 32"><g fill="none" fill-rule="evenodd"><circle cx="16" cy="16" r="16" fill="#FFF"/><path d="M29 9.6c-.9.4-1.8.7-2.8.8 1-.6 1.8-1.6 2.2-2.7-1 .6-2 1-3.1 1.2-.9-1-2.2-1.6-3.6-1.6-2.7 0-4.9 2.2-4.9 4.9 0 .4 0 .8.1 1.1-4.2-.2-7.8-2.2-10.2-5.2-.5.8-.7 1.6-.7 2.5 0 1.7.9 3.2 2.2 4.1-.8 0-1.6-.2-2.2-.6v.1c0 2.4 1.7 4.4 3.9 4.8-.4.1-.8.2-1.3.2-.3 0-.6 0-.9-.1.6 2 2.4 3.4 4.6 3.4-1.7 1.3-3.8 2.1-6.1 2.1-.4 0-.8 0-1.2-.1 2.2 1.4 4.8 2.2 7.5 2.2 9.1 0 14-7.5 14-14v-.6c1-.7 1.8-1.6 2.5-2.5z" fill="#051d3b" fill-rule="nonzero"/></g></symbol><svg xmlns="http://www.w3.org/2000/svg" width="16" height="16"><path d="M13.6 2.3C12.1.8 10.2 0 8 0 3.7 0 .1 3.6.1 7.9c0 1.4.4 2.8 1.1 4L0 16l4.2-1.1c1.2.6 2.5 1 3.8 1 4.4 0 7.9-3.6 7.9-7.9.1-2.2-.8-4.2-2.3-5.7zm-1.7 8.5c-.2.5-1 .9-1.3.9-.3.1-1.3 0-2.4-.5-2-.9-3.3-2.9-3.4-3-.1-.1-.8-1.1-.8-2 0-.9.5-1.5.7-1.7.4-.4 1.2-.3 1.4.1.1.4.5 1.4.6 1.5.1.1.1.5-.2.7-.1 0-.6.4-.4.7.1.2.5.8 1.1 1.4.8.7 1.4.9 1.6 1 .2.1.3.1.4-.1.1-.1.5-.6.6-.8.1-.2.3-.2.4-.1.1.1 1.2.5 1.4.6.2.2.4.2.4.3.1.1.1.5-.1 1z" fill="#FFF" fill-rule="nonzero"/></svg><symbol id="icon-footer-youtube" viewBox="0 0 32 32"><g fill="none" fill-rule="evenodd"><circle cx="16" cy="16" r="16" fill="#FFF"/><path d="M27.8 12.2s-.2-1.7-1-2.4c-.9-1-1.9-1-2.4-1-3.4-.2-8.4-.2-8.4-.2s-5 0-8.4.2c-.5.1-1.5.1-2.4 1-.7.7-1 2.4-1 2.4S4 14.1 4 16.1v1.8c0 1.9.2 3.9.2 3.9s.2 1.7 1 2.4c.9 1 2.1.9 2.6 1 1.9.2 8.2.2 8.2.2s5 0 8.4-.3c.5-.1 1.5-.1 2.4-1 .7-.7 1-2.4 1-2.4s.2-1.9.2-3.9V16c0-1.9-.2-3.8-.2-3.8zm-14.3 7.9v-6.7l6.5 3.4-6.5 3.3z" fill="#051d3b" fill-rule="nonzero"/></g></symbol></defs></svg>